<mxfile host="app.diagrams.net" modified="2024-04-03T19:07:09.479Z" agent="Mozilla/5.0 (Windows NT 10.0; Win64; x64) AppleWebKit/537.36 (KHTML, like Gecko) Chrome/123.0.0.0 Safari/537.36" version="24.2.2" etag="3AyQrMZUKPGo5rYmNfI0" type="github">
  <diagram name="Page-1" id="nX65yj_qFH9_rkl80-M0">
    <mxGraphModel>
      <root>
        <mxCell id="0" />
        <mxCell id="1" parent="0" />
      </root>
    </mxGraphModel>
  </diagram>
</mxfile>
